<svg xmlns="http://www.w3.org/2000/svg" width="256" height="256" viewBox="0 0 100 100"><rect width="100" height="100" rx="20" fill="#7d6ee7"></rect><path fill="#fff" d="M30.86 41.18L30.86 41.18Q30.86 41.74 30.52 42.14Q30.18 42.54 29.74 42.74L29.74 42.74Q28.70 42.02 27.30 41.38Q25.90 40.74 23.66 40.74L23.66 40.74Q21.82 40.74 20.26 41.38Q18.70 42.02 17.54 43.26Q16.38 44.50 15.72 46.38Q15.06 48.26 15.06 50.70L15.06 50.70Q15.06 53.18 15.70 55.02Q16.34 56.86 17.48 58.10Q18.62 59.34 20.22 59.96Q21.82 60.58 23.78 60.58L23.78 60.58Q25.86 60.58 27.40 60Q28.94 59.42 29.98 58.62L29.98 58.62Q30.38 58.78 30.74 59.20Q31.10 59.62 31.10 60.18L31.10 60.18Q31.10 61.02 30.14 61.70L30.14 61.70Q29.22 62.34 27.62 62.84Q26.02 63.34 23.54 63.34L23.54 63.34Q21.02 63.34 18.86 62.54Q16.70 61.74 15.12 60.16Q13.54 58.58 12.62 56.22Q11.70 53.86 11.70 50.70L11.70 50.70Q11.70 47.54 12.64 45.16Q13.58 42.78 15.18 41.18Q16.78 39.58 18.92 38.78Q21.06 37.98 23.42 37.98L23.42 37.98Q25.06 37.98 26.44 38.26Q27.82 38.54 28.80 39Q29.78 39.46 30.32 40.04Q30.86 40.62 30.86 41.18ZM39.34 62.74L39.34 62.74Q39.14 62.82 38.74 62.92Q38.34 63.02 37.86 63.02L37.86 63.02Q36.14 63.02 36.14 61.58L36.14 61.58L36.14 36.90Q36.34 36.82 36.76 36.72Q37.18 36.62 37.66 36.62L37.66 36.62Q39.34 36.62 39.34 38.06L39.34 38.06L39.34 45.26Q40.30 44.70 41.60 44.26Q42.90 43.82 44.54 43.82L44.54 43.82Q46.22 43.82 47.60 44.26Q48.98 44.70 49.98 45.60Q50.98 46.50 51.54 47.88Q52.10 49.26 52.10 51.10L52.10 51.10L52.10 62.74Q51.90 62.82 51.48 62.92Q51.06 63.02 50.62 63.02L50.62 63.02Q48.90 63.02 48.90 61.58L48.90 61.58L48.90 51.18Q48.90 48.78 47.58 47.62Q46.26 46.46 44.10 46.46L44.10 46.46Q42.70 46.46 41.48 46.96Q40.26 47.46 39.34 48.18L39.34 48.18L39.34 62.74ZM64.70 60.74L64.70 60.74Q66.38 60.74 67.48 60.40Q68.58 60.06 69.06 59.74L69.06 59.74L69.06 53.94L64.10 54.46Q62.02 54.66 61.02 55.40Q60.02 56.14 60.02 57.58L60.02 57.58Q60.02 59.10 61.18 59.92Q62.34 60.74 64.70 60.74ZM64.66 43.82L64.66 43.82Q68.14 43.82 70.18 45.38Q72.22 46.94 72.22 50.30L72.22 50.30L72.22 59.78Q72.22 60.66 71.88 61.12Q71.54 61.58 70.86 61.98L70.86 61.98Q69.90 62.54 68.32 62.96Q66.74 63.38 64.70 63.38L64.70 63.38Q60.94 63.38 58.88 61.90Q56.82 60.42 56.82 57.62L56.82 57.62Q56.82 54.98 58.54 53.64Q60.26 52.30 63.38 51.98L63.38 51.98L69.06 51.42L69.06 50.30Q69.06 48.30 67.86 47.38Q66.66 46.46 64.62 46.46L64.62 46.46Q62.94 46.46 61.46 46.94Q59.98 47.42 58.82 48.02L58.82 48.02Q58.50 47.74 58.24 47.38Q57.98 47.02 57.98 46.58L57.98 46.58Q57.98 46.02 58.26 45.66Q58.54 45.30 59.14 44.98L59.14 44.98Q60.22 44.42 61.62 44.12Q63.02 43.82 64.66 43.82ZM84.38 63.34L84.38 63.34Q81.58 63.34 79.84 62.10Q78.10 60.86 78.10 57.98L78.10 57.98L78.10 38.98Q78.30 38.90 78.72 38.80Q79.14 38.70 79.62 38.70L79.62 38.70Q81.30 38.70 81.30 40.14L81.30 40.14L81.30 44.74L87.86 44.74Q87.98 44.94 88.10 45.28Q88.22 45.62 88.22 46.02L88.22 46.02Q88.22 47.38 87.02 47.38L87.02 47.38L81.30 47.38L81.30 57.78Q81.30 59.38 82.20 60.04Q83.10 60.70 84.74 60.70L84.74 60.70Q85.42 60.70 86.26 60.46Q87.10 60.22 87.66 59.90L87.66 59.90Q87.90 60.14 88.10 60.50Q88.30 60.86 88.30 61.34L88.30 61.34Q88.30 62.22 87.26 62.78Q86.22 63.34 84.38 63.34Z"></path></svg>